<svg width="213" height="29" viewBox="0 0 213 29" fill="white" xmlns="http://www.w3.org/2000/svg">
<path d="M19.168 21.04C19.168 22.48 18.912 23.616 18.4 24.448C17.888 25.248 17.136 26 16.144 26.704C15.888 26.864 15.536 27.056 15.088 27.28C14.64 27.504 14.144 27.712 13.6 27.904C13.056 28.096 12.48 28.256 11.872 28.384C11.264 28.512 10.704 28.576 10.192 28.576C8.752 28.576 7.664 28.416 6.928 28.096C6.192 27.808 5.824 27.456 5.824 27.04C5.824 26.592 5.952 26.224 6.208 25.936C6.464 25.648 6.688 25.488 6.88 25.456L7.408 25.84C7.568 26 7.792 26.176 8.08 26.368C8.368 26.528 8.832 26.608 9.472 26.608C10.08 26.608 10.816 26.512 11.68 26.32C12.544 26.096 13.36 25.776 14.128 25.36C14.928 24.912 15.6 24.368 16.144 23.728C16.72 23.088 17.008 22.352 17.008 21.52C17.008 20.784 16.448 20.112 15.328 19.504C14.24 18.864 12.512 18.432 10.144 18.208C8.928 18.112 7.728 17.968 6.544 17.776C5.36 17.552 4.288 17.264 3.328 16.912C2.4 16.528 1.648 16.064 1.072 15.52C0.496 14.944 0.208 14.24 0.208 13.408C0.208 12.608 0.432 11.84 0.88 11.104C1.328 10.368 1.872 9.696 2.512 9.088C3.184 8.448 3.872 7.888 4.576 7.408C5.28 6.928 5.872 6.528 6.352 6.208C6.736 5.984 7.264 5.696 7.936 5.344C8.64 4.96 9.376 4.608 10.144 4.288C10.944 3.936 11.728 3.648 12.496 3.424C13.296 3.168 13.968 3.04 14.512 3.04C15.152 3.04 15.584 3.216 15.808 3.568C16.032 3.92 16.144 4.416 16.144 5.056C16.144 5.6 16.08 6.176 15.952 6.784C15.824 7.392 15.68 7.984 15.52 8.56C15.36 9.136 15.2 9.648 15.04 10.096C14.912 10.512 14.816 10.784 14.752 10.912C14.624 11.2 14.48 11.392 14.32 11.488C14.16 11.584 14.048 11.632 13.984 11.632C13.856 11.632 13.792 11.552 13.792 11.392C13.792 11.296 13.808 11.12 13.84 10.864C13.904 10.576 13.968 10.24 14.032 9.856C14.128 9.472 14.192 9.056 14.224 8.608C14.288 8.16 14.32 7.712 14.32 7.264C14.32 6.56 14.288 6.048 14.224 5.728C14.16 5.408 13.904 5.248 13.456 5.248C13.008 5.248 12.4 5.376 11.632 5.632C10.864 5.856 10.08 6.144 9.28 6.496C8.416 6.88 7.568 7.376 6.736 7.984C5.936 8.592 5.216 9.216 4.576 9.856C3.936 10.496 3.408 11.12 2.992 11.728C2.608 12.304 2.416 12.768 2.416 13.12C2.416 13.504 2.672 13.872 3.184 14.224C3.728 14.544 4.4 14.832 5.2 15.088C6.032 15.344 6.944 15.568 7.936 15.76C8.928 15.952 9.904 16.096 10.864 16.192C11.664 16.288 12.544 16.416 13.504 16.576C14.464 16.736 15.36 16.992 16.192 17.344C17.024 17.696 17.728 18.176 18.304 18.784C18.88 19.36 19.168 20.112 19.168 21.04ZM44.6106 18.016C44.6106 18.592 44.3386 19.312 43.7946 20.176C43.2826 21.008 42.5786 21.824 41.6826 22.624C40.7866 23.424 39.7466 24.112 38.5626 24.688C37.3786 25.232 36.1466 25.504 34.8666 25.504C34.2906 25.504 33.6826 25.408 33.0426 25.216C32.4026 25.024 31.7786 24.752 31.1706 24.4C30.5626 24.016 30.0186 23.568 29.5386 23.056C29.0586 22.512 28.7066 21.904 28.4826 21.232C28.2906 21.424 28.0506 21.744 27.7626 22.192C27.5066 22.64 27.2186 23.104 26.8986 23.584C26.5786 24.032 26.2266 24.432 25.8426 24.784C25.4586 25.104 25.0586 25.264 24.6426 25.264C24.2266 25.264 23.8746 25.056 23.5866 24.64C23.3306 24.192 23.1226 23.712 22.9626 23.2C22.8026 22.656 22.6906 22.144 22.6266 21.664C22.5626 21.184 22.5306 20.912 22.5306 20.848C22.5306 20.464 22.6426 19.744 22.8666 18.688C23.0906 17.6 23.4266 16.48 23.8746 15.328C24.3226 14.176 24.8826 13.152 25.5546 12.256C26.2586 11.36 27.0746 10.912 28.0026 10.912C28.3546 10.912 28.5786 11.072 28.6746 11.392C28.8026 11.68 28.8666 11.968 28.8666 12.256V13.696C29.0266 13.824 29.1866 13.92 29.3466 13.984C29.5386 14.016 29.6986 14.08 29.8266 14.176C29.9866 14.24 30.0986 14.352 30.1626 14.512C30.2586 14.672 30.3066 14.928 30.3066 15.28C30.3066 15.504 30.2906 15.712 30.2586 15.904C30.2266 16.064 30.2106 16.224 30.2106 16.384C30.2106 17.216 30.2746 18.032 30.4026 18.832C30.5306 19.632 30.7866 20.352 31.1706 20.992C31.5546 21.6 32.0826 22.112 32.7546 22.528C33.4266 22.912 34.3226 23.104 35.4426 23.104C36.8506 23.104 38.0346 22.816 38.9946 22.24C39.9866 21.632 40.8026 20.976 41.4426 20.272C42.1146 19.536 42.6426 18.88 43.0266 18.304C43.4106 17.696 43.7306 17.392 43.9866 17.392C44.4026 17.392 44.6106 17.6 44.6106 18.016ZM27.7626 15.904C27.7626 15.776 27.7306 15.664 27.6666 15.568C27.6026 15.44 27.5706 15.328 27.5706 15.232C27.5706 15.104 27.6026 14.992 27.6666 14.896C27.7306 14.8 27.7626 14.672 27.7626 14.512C27.7626 14.416 27.7306 14.352 27.6666 14.32C27.6026 14.256 27.5706 14.192 27.5706 14.128C27.2826 14.192 26.9786 14.464 26.6586 14.944C26.3706 15.424 26.0826 15.984 25.7946 16.624C25.5386 17.264 25.3306 17.92 25.1706 18.592C25.0106 19.232 24.9306 19.76 24.9306 20.176C24.9306 20.4 24.9946 20.768 25.1226 21.28C25.2506 21.792 25.3946 22.128 25.5546 22.288C26.0986 21.168 26.5946 20.08 27.0426 19.024C27.5226 17.968 27.7626 16.928 27.7626 15.904ZM62.2413 22.864C62.2413 23.12 62.2093 23.312 62.1453 23.44C62.0813 23.536 61.9213 23.616 61.6653 23.68C61.3773 23.776 61.0093 23.888 60.5613 24.016C60.1453 24.112 59.6813 24.224 59.1693 24.352C58.6573 24.448 58.1293 24.544 57.5853 24.64C57.0733 24.704 56.5933 24.736 56.1453 24.736C55.6013 24.736 54.9933 24.704 54.3213 24.64C53.6813 24.576 53.0573 24.48 52.4493 24.352C51.8413 24.192 51.2813 24.032 50.7693 23.872C50.2893 23.68 49.9373 23.456 49.7133 23.2C49.8733 23.872 50.0173 24.544 50.1453 25.216C50.2733 25.888 50.3693 26.56 50.4333 27.232C50.4333 27.392 50.3853 27.536 50.2893 27.664C50.2253 27.76 50.0173 27.808 49.6653 27.808C49.5053 27.808 49.3453 27.776 49.1853 27.712C49.0573 27.616 48.9453 27.44 48.8493 27.184C48.5613 26.544 48.3213 25.952 48.1293 25.408C47.9373 24.832 47.7613 24.256 47.6013 23.68C47.4733 23.104 47.3293 22.496 47.1693 21.856C47.0093 21.216 46.8173 20.512 46.5933 19.744C46.2413 18.496 45.8733 17.168 45.4893 15.76C45.1053 14.32 44.7533 12.96 44.4333 11.68C44.1133 10.368 43.8573 9.216 43.6653 8.224C43.4733 7.2 43.3773 6.48 43.3773 6.064C43.3773 5.872 43.3773 5.616 43.3773 5.296C43.4093 4.976 43.4573 4.672 43.5213 4.384C43.6173 4.064 43.7293 3.808 43.8573 3.616C44.0173 3.392 44.2253 3.28 44.4813 3.28C44.6413 3.28 44.8013 3.536 44.9613 4.048C45.1533 4.528 45.3133 5.072 45.4413 5.68C45.6013 6.256 45.7293 6.816 45.8253 7.36C45.9533 7.872 46.0173 8.144 46.0173 8.176C46.1453 8.88 46.2893 9.664 46.4492 10.528C46.6413 11.36 46.8333 12.208 47.0253 13.072C47.2173 13.936 47.4253 14.768 47.6493 15.568C47.8733 16.336 48.1133 16.992 48.3693 17.536C48.4013 17.216 48.5133 16.752 48.7053 16.144C48.8973 15.536 49.1533 14.88 49.4733 14.176C49.7933 13.472 50.1453 12.752 50.5293 12.016C50.9453 11.248 51.3613 10.56 51.7773 9.952C52.2253 9.344 52.6573 8.848 53.0733 8.464C53.5213 8.08 53.9373 7.888 54.3213 7.888C54.9293 7.888 55.3453 7.968 55.5693 8.128C55.8253 8.288 55.9532 8.48 55.9532 8.704C55.9532 8.896 55.6813 9.28 55.1373 9.856C54.5933 10.4 53.9853 11.136 53.3133 12.064C52.6413 12.96 52.0333 14.032 51.4893 15.28C50.9453 16.496 50.6733 17.856 50.6733 19.36C50.6733 19.904 50.8173 20.384 51.1053 20.8C51.4253 21.184 51.8253 21.504 52.3053 21.76C52.8173 22.016 53.3773 22.224 53.9853 22.384C54.6253 22.512 55.2493 22.576 55.8573 22.576C56.4013 22.576 56.9933 22.56 57.6333 22.528C58.2733 22.496 58.8653 22.464 59.4093 22.432C59.9853 22.368 60.4653 22.32 60.8493 22.288C61.2653 22.256 61.5213 22.24 61.6173 22.24C61.7773 22.24 61.9213 22.288 62.0493 22.384C62.1773 22.48 62.2413 22.64 62.2413 22.864ZM77.6703 22.96C77.7023 23.024 77.7183 23.12 77.7183 23.248C77.7183 23.44 77.5743 23.728 77.2863 24.112C77.1903 24.24 76.9823 24.448 76.6623 24.736C76.3423 25.024 75.9103 25.312 75.3663 25.6C74.8223 25.888 74.1503 26.144 73.3503 26.368C72.5823 26.592 71.6703 26.704 70.6143 26.704C69.8783 26.704 69.1583 26.544 68.4543 26.224C67.7503 25.872 67.1263 25.376 66.5823 24.736C66.0383 24.064 65.5903 23.248 65.2383 22.288C64.8863 21.296 64.7103 20.144 64.7103 18.832C64.7103 17.584 64.8703 16.416 65.1903 15.328C65.5103 14.24 65.9103 13.28 66.3903 12.448C66.9023 11.616 67.4623 10.96 68.0703 10.48C68.6783 10 69.2703 9.76 69.8463 9.76C70.3583 9.76 70.8703 9.872 71.3823 10.096C71.9263 10.288 72.4063 10.544 72.8223 10.864C73.2703 11.184 73.6223 11.552 73.8783 11.968C74.1343 12.352 74.2623 12.752 74.2623 13.168C74.2623 13.648 74.0383 14.144 73.5903 14.656C73.1743 15.168 72.6623 15.648 72.0543 16.096C71.4463 16.512 70.8383 16.864 70.2303 17.152C69.6223 17.408 69.1423 17.536 68.7903 17.536C68.5983 17.536 68.4223 17.456 68.2623 17.296C68.1343 17.104 68.0703 16.88 68.0703 16.624C68.0703 16.176 68.2623 15.824 68.6463 15.568C69.0623 15.312 69.5103 15.088 69.9903 14.896C70.4703 14.672 70.9023 14.416 71.2863 14.128C71.7023 13.84 71.9103 13.44 71.9103 12.928C71.9103 12.864 71.8303 12.704 71.6703 12.448C71.5103 12.192 71.0783 12.064 70.3743 12.064C70.0543 12.064 69.6863 12.256 69.2703 12.64C68.8543 12.992 68.4543 13.488 68.0703 14.128C67.6863 14.736 67.3663 15.472 67.1103 16.336C66.8543 17.168 66.7263 18.08 66.7263 19.072C66.7263 19.904 66.8703 20.656 67.1583 21.328C67.4783 22 67.8783 22.576 68.3583 23.056C68.8383 23.504 69.3983 23.856 70.0383 24.112C70.6783 24.368 71.3343 24.496 72.0063 24.496C72.4863 24.496 72.9983 24.4 73.5423 24.208C74.1183 23.984 74.6463 23.76 75.1263 23.536C75.6383 23.28 76.0703 23.056 76.4223 22.864C76.8063 22.64 77.0463 22.528 77.1423 22.528C77.2383 22.528 77.3343 22.576 77.4303 22.672C77.5583 22.768 77.6383 22.864 77.6703 22.96ZM93.7806 6.304C93.3646 6.784 92.7726 7.264 92.0046 7.744C91.2366 8.192 90.4686 8.608 89.7006 8.992C88.9326 9.376 88.2606 9.712 87.6846 10C87.1086 10.256 86.8206 10.432 86.8206 10.528C86.8206 10.624 86.8846 10.912 87.0126 11.392C87.1406 11.872 87.2846 12.448 87.4446 13.12C87.6366 13.76 87.8286 14.432 88.0206 15.136C88.2126 15.84 88.3726 16.464 88.5006 17.008C88.5646 17.328 88.6446 17.744 88.7406 18.256C88.8366 18.768 88.9166 19.28 88.9806 19.792C89.0766 20.304 89.1566 20.768 89.2206 21.184C89.2846 21.568 89.3166 21.776 89.3166 21.808C89.3166 22.288 89.2366 22.784 89.0766 23.296C88.9166 23.808 88.6606 24.064 88.3086 24.064C88.1166 24.064 87.9406 23.984 87.7806 23.824C87.6206 23.664 87.4766 23.488 87.3486 23.296C87.2206 23.072 87.1246 22.864 87.0606 22.672C86.9966 22.48 86.9646 22.336 86.9646 22.24C86.9646 22.176 86.9646 22.08 86.9646 21.952C86.9966 21.824 87.0126 21.68 87.0126 21.52C87.0126 20.912 86.9166 20.032 86.7246 18.88C86.6606 18.528 86.5326 17.984 86.3406 17.248C86.1486 16.512 85.9566 15.76 85.7646 14.992C85.5406 14.096 85.2846 13.12 84.9966 12.064C84.8686 11.616 84.7886 11.392 84.7566 11.392C84.5326 11.392 84.1486 11.536 83.6046 11.824C83.0926 12.08 82.5006 12.416 81.8286 12.832C81.1566 13.216 80.4526 13.648 79.7166 14.128C78.9806 14.576 78.2926 15.008 77.6526 15.424C77.0126 15.808 76.4686 16.144 76.0206 16.432C75.5406 16.688 75.2526 16.816 75.1566 16.816C74.7406 16.816 74.4046 16.672 74.1486 16.384C73.8926 16.096 73.7646 15.776 73.7646 15.424C73.7646 15.232 74.0366 14.96 74.5806 14.608C75.0926 14.224 75.7486 13.808 76.5486 13.36C77.3166 12.912 78.1646 12.448 79.0926 11.968C79.9886 11.488 80.8206 11.056 81.5886 10.672C82.3886 10.288 83.0446 9.968 83.5566 9.712C84.1006 9.456 84.3726 9.328 84.3726 9.328C84.0846 7.856 83.8446 6.544 83.6526 5.392C83.4926 4.4 83.3326 3.488 83.1726 2.656C83.0446 1.824 82.9806 1.376 82.9806 1.312C82.9806 0.895999 83.0606 0.591999 83.2206 0.399998C83.4126 0.175999 83.6206 0.0639992 83.8446 0.0639992C84.1966 0.0639992 84.4206 0.303999 84.5166 0.783998C84.8686 2.512 85.1886 4.048 85.4766 5.392C85.7966 6.736 86.1006 7.824 86.3886 8.656C86.6766 8.592 87.1726 8.416 87.8766 8.128C88.5806 7.808 89.3166 7.472 90.0846 7.12C90.8526 6.768 91.5406 6.464 92.1486 6.208C92.7886 5.92 93.1566 5.776 93.2526 5.776C93.4446 5.776 93.5566 5.84 93.5886 5.968C93.6526 6.096 93.7166 6.208 93.7806 6.304ZM128.504 22.288C128.504 22.704 128.44 23.28 128.312 24.016C128.184 24.72 128.024 25.424 127.832 26.128C127.64 26.832 127.416 27.44 127.16 27.952C126.904 28.464 126.664 28.72 126.44 28.72C126.088 28.72 125.576 28.416 124.904 27.808C124.232 27.168 123.512 26.416 122.744 25.552C121.976 24.688 121.224 23.792 120.488 22.864C119.784 21.936 119.224 21.152 118.808 20.512C118.264 19.68 117.768 18.832 117.32 17.968C116.904 17.104 116.536 16.272 116.216 15.472C115.928 14.672 115.704 13.936 115.544 13.264C115.384 12.56 115.304 11.968 115.304 11.488C115.304 11.072 115.416 10.72 115.64 10.432C115.896 10.144 116.12 10 116.312 10C116.6 10 116.808 10.112 116.936 10.336C117.064 10.528 117.176 10.816 117.272 11.2C117.368 11.552 117.48 11.984 117.608 12.496C117.736 13.008 117.944 13.584 118.232 14.224C118.552 14.992 119 15.888 119.576 16.912C120.184 17.904 120.84 18.912 121.544 19.936C122.248 20.96 122.952 21.92 123.656 22.816C124.392 23.712 125.064 24.4 125.672 24.88C125.864 24.336 126.008 23.616 126.104 22.72C126.2 21.824 126.248 20.928 126.248 20.032C126.248 19.2 126.2 18.24 126.104 17.152C126.008 16.032 125.864 14.896 125.672 13.744C125.512 12.56 125.32 11.408 125.096 10.288C124.872 9.136 124.648 8.096 124.424 7.168L122.936 1.648C122.936 1.328 123.096 1.072 123.416 0.88C123.736 0.655999 124.04 0.543999 124.328 0.543999C124.744 0.543999 125.032 0.639998 125.192 0.831998C125.352 0.991998 125.448 1.248 125.48 1.6C125.544 1.952 125.576 2.4 125.576 2.944C125.608 3.456 125.704 4.048 125.864 4.72C126.184 6.224 126.488 7.84 126.776 9.568C127.096 11.264 127.384 12.928 127.64 14.56C127.896 16.16 128.104 17.648 128.264 19.024C128.424 20.4 128.504 21.488 128.504 22.288ZM145.639 22.96C145.671 23.024 145.687 23.12 145.687 23.248C145.687 23.44 145.543 23.728 145.255 24.112C145.159 24.24 144.951 24.448 144.631 24.736C144.311 25.024 143.879 25.312 143.335 25.6C142.791 25.888 142.119 26.144 141.319 26.368C140.551 26.592 139.639 26.704 138.583 26.704C137.847 26.704 137.127 26.544 136.423 26.224C135.719 25.872 135.095 25.376 134.551 24.736C134.007 24.064 133.559 23.248 133.207 22.288C132.855 21.296 132.679 20.144 132.679 18.832C132.679 17.584 132.839 16.416 133.159 15.328C133.479 14.24 133.879 13.28 134.359 12.448C134.871 11.616 135.431 10.96 136.039 10.48C136.647 10 137.239 9.76 137.815 9.76C138.327 9.76 138.839 9.872 139.351 10.096C139.895 10.288 140.375 10.544 140.791 10.864C141.239 11.184 141.591 11.552 141.847 11.968C142.103 12.352 142.231 12.752 142.231 13.168C142.231 13.648 142.007 14.144 141.559 14.656C141.143 15.168 140.631 15.648 140.023 16.096C139.415 16.512 138.807 16.864 138.199 17.152C137.591 17.408 137.111 17.536 136.759 17.536C136.567 17.536 136.391 17.456 136.231 17.296C136.103 17.104 136.039 16.88 136.039 16.624C136.039 16.176 136.231 15.824 136.615 15.568C137.031 15.312 137.479 15.088 137.959 14.896C138.439 14.672 138.871 14.416 139.255 14.128C139.671 13.84 139.879 13.44 139.879 12.928C139.879 12.864 139.799 12.704 139.639 12.448C139.479 12.192 139.047 12.064 138.343 12.064C138.023 12.064 137.655 12.256 137.239 12.64C136.823 12.992 136.423 13.488 136.039 14.128C135.655 14.736 135.335 15.472 135.079 16.336C134.823 17.168 134.695 18.08 134.695 19.072C134.695 19.904 134.839 20.656 135.127 21.328C135.447 22 135.847 22.576 136.327 23.056C136.807 23.504 137.367 23.856 138.007 24.112C138.647 24.368 139.303 24.496 139.975 24.496C140.455 24.496 140.967 24.4 141.511 24.208C142.087 23.984 142.615 23.76 143.095 23.536C143.607 23.28 144.039 23.056 144.391 22.864C144.775 22.64 145.015 22.528 145.111 22.528C145.207 22.528 145.303 22.576 145.399 22.672C145.527 22.768 145.607 22.864 145.639 22.96ZM160.357 13.36C160.357 13.584 160.261 13.776 160.069 13.936C159.877 14.064 159.653 14.176 159.397 14.272C159.141 14.368 158.885 14.448 158.629 14.512C158.373 14.544 158.165 14.56 158.005 14.56C157.525 14.56 157.205 14.528 157.045 14.464C156.885 14.4 156.757 14.368 156.661 14.368C155.861 14.368 155.221 14.432 154.741 14.56C154.261 14.688 153.877 14.896 153.589 15.184C153.333 15.472 153.157 15.84 153.061 16.288C152.997 16.704 152.965 17.216 152.965 17.824C152.965 18.848 152.997 19.664 153.061 20.272C153.157 20.88 153.237 21.376 153.301 21.76C153.397 22.144 153.477 22.448 153.541 22.672C153.637 22.864 153.685 23.056 153.685 23.248C153.685 23.504 153.541 23.776 153.253 24.064C152.997 24.352 152.757 24.496 152.533 24.496C152.149 24.496 151.797 24.16 151.477 23.488C151.189 22.784 150.933 21.968 150.709 21.04C150.517 20.08 150.357 19.136 150.229 18.208C150.101 17.28 150.037 16.576 150.037 16.096C150.037 15.552 150.085 15.04 150.181 14.56C150.277 14.048 150.405 13.616 150.565 13.264C150.725 12.88 150.901 12.576 151.093 12.352C151.285 12.128 151.477 12.016 151.669 12.016C151.829 12.016 151.957 12.08 152.053 12.208C152.149 12.304 152.229 12.432 152.293 12.592C152.357 12.72 152.421 12.848 152.485 12.976C152.581 13.072 152.693 13.12 152.821 13.12C153.109 13.12 153.573 12.976 154.213 12.688C154.853 12.4 155.637 12.256 156.565 12.256C157.429 12.256 158.069 12.288 158.485 12.352C158.933 12.384 159.365 12.48 159.781 12.64C159.877 12.672 159.989 12.752 160.117 12.88C160.277 12.976 160.357 13.136 160.357 13.36ZM185.529 23.488C185.529 23.744 185.449 23.968 185.289 24.16C185.129 24.352 184.937 24.512 184.713 24.64C184.489 24.736 184.249 24.816 183.993 24.88C183.769 24.944 183.577 24.976 183.417 24.976C182.745 24.976 182.169 24.624 181.689 23.92C181.209 23.184 180.809 22.384 180.489 21.52C180.169 20.624 179.929 19.792 179.769 19.024C179.641 18.256 179.577 17.84 179.577 17.776C179.385 18.128 179.177 18.72 178.953 19.552C178.761 20.384 178.521 21.232 178.233 22.096C177.945 22.928 177.577 23.68 177.129 24.352C176.713 24.992 176.169 25.312 175.497 25.312C175.177 25.312 174.873 25.12 174.585 24.736C174.297 24.352 174.025 23.856 173.769 23.248C173.513 22.64 173.257 21.952 173.001 21.184C172.777 20.416 172.537 19.664 172.281 18.928C172.057 18.192 171.833 17.504 171.609 16.864C171.385 16.192 171.161 15.664 170.937 15.28C170.745 15.76 170.569 16.416 170.409 17.248C170.281 18.08 170.169 18.96 170.073 19.888C169.977 20.784 169.897 21.68 169.833 22.576C169.769 23.472 169.737 24.256 169.737 24.928C169.737 25.376 169.609 25.696 169.353 25.888C169.129 26.08 168.889 26.176 168.633 26.176C168.281 26.176 167.929 25.952 167.577 25.504C167.225 25.024 166.873 24.416 166.521 23.68C166.169 22.944 165.833 22.112 165.513 21.184C165.225 20.256 164.953 19.328 164.697 18.4C164.473 17.472 164.297 16.592 164.169 15.76C164.041 14.896 163.977 14.176 163.977 13.6C163.977 13.184 163.993 12.8 164.025 12.448C164.057 12.16 164.073 11.888 164.073 11.632C164.105 11.376 164.121 11.232 164.121 11.2C164.121 11.104 164.089 11.04 164.025 11.008C163.993 10.976 163.977 10.896 163.977 10.768C163.977 10.672 164.089 10.528 164.313 10.336C164.569 10.112 164.825 10 165.081 10C165.529 10 165.817 10.096 165.945 10.288C166.105 10.48 166.185 10.704 166.185 10.96C166.185 11.056 166.169 11.2 166.137 11.392C166.137 11.584 166.137 12.016 166.137 12.688C166.137 13.136 166.217 13.808 166.377 14.704C166.537 15.6 166.729 16.512 166.953 17.44C167.177 18.368 167.401 19.232 167.625 20.032C167.881 20.8 168.089 21.28 168.249 21.472C168.313 21.344 168.345 21.2 168.345 21.04C168.377 20.848 168.409 20.704 168.441 20.608L168.969 16.672C169.097 15.68 169.353 14.64 169.737 13.552C170.153 12.432 170.585 11.568 171.033 10.96C171.193 10.704 171.369 10.576 171.561 10.576C171.753 10.576 171.929 10.72 172.089 11.008C172.633 11.904 173.033 12.8 173.289 13.696C173.577 14.56 173.817 15.424 174.009 16.288C174.233 17.12 174.473 17.968 174.729 18.832C175.017 19.664 175.449 20.512 176.025 21.376C176.281 20.96 176.601 20.288 176.985 19.36C177.369 18.4 177.753 17.44 178.137 16.48C178.553 15.52 178.937 14.688 179.289 13.984C179.641 13.248 179.913 12.88 180.105 12.88C180.201 12.88 180.361 12.896 180.585 12.928C180.809 12.96 180.969 12.976 181.065 12.976C181.353 12.976 181.593 13.312 181.785 13.984C181.977 14.624 182.137 15.392 182.265 16.288C182.425 17.152 182.569 18.032 182.697 18.928C182.857 19.792 183.033 20.448 183.225 20.896C183.353 21.216 183.545 21.52 183.801 21.808C184.057 22.096 184.313 22.368 184.569 22.624C184.889 22.912 185.209 23.2 185.529 23.488ZM212.189 18.016C212.189 18.592 211.917 19.312 211.373 20.176C210.861 21.008 210.157 21.824 209.261 22.624C208.365 23.424 207.325 24.112 206.141 24.688C204.957 25.232 203.725 25.504 202.445 25.504C201.869 25.504 201.261 25.408 200.621 25.216C199.981 25.024 199.357 24.752 198.749 24.4C198.141 24.016 197.597 23.568 197.117 23.056C196.637 22.512 196.285 21.904 196.061 21.232C195.869 21.424 195.629 21.744 195.341 22.192C195.085 22.64 194.797 23.104 194.477 23.584C194.157 24.032 193.805 24.432 193.421 24.784C193.037 25.104 192.637 25.264 192.221 25.264C191.805 25.264 191.453 25.056 191.165 24.64C190.909 24.192 190.701 23.712 190.541 23.2C190.381 22.656 190.269 22.144 190.205 21.664C190.141 21.184 190.109 20.912 190.109 20.848C190.109 20.464 190.221 19.744 190.445 18.688C190.669 17.6 191.005 16.48 191.453 15.328C191.901 14.176 192.461 13.152 193.133 12.256C193.837 11.36 194.653 10.912 195.581 10.912C195.933 10.912 196.157 11.072 196.253 11.392C196.381 11.68 196.445 11.968 196.445 12.256V13.696C196.605 13.824 196.765 13.92 196.925 13.984C197.117 14.016 197.277 14.08 197.405 14.176C197.565 14.24 197.677 14.352 197.741 14.512C197.837 14.672 197.885 14.928 197.885 15.28C197.885 15.504 197.869 15.712 197.837 15.904C197.805 16.064 197.789 16.224 197.789 16.384C197.789 17.216 197.853 18.032 197.981 18.832C198.109 19.632 198.365 20.352 198.749 20.992C199.133 21.6 199.661 22.112 200.333 22.528C201.005 22.912 201.901 23.104 203.021 23.104C204.429 23.104 205.613 22.816 206.573 22.24C207.565 21.632 208.381 20.976 209.021 20.272C209.693 19.536 210.221 18.88 210.605 18.304C210.989 17.696 211.309 17.392 211.565 17.392C211.981 17.392 212.189 17.6 212.189 18.016ZM195.341 15.904C195.341 15.776 195.309 15.664 195.245 15.568C195.181 15.44 195.149 15.328 195.149 15.232C195.149 15.104 195.181 14.992 195.245 14.896C195.309 14.8 195.341 14.672 195.341 14.512C195.341 14.416 195.309 14.352 195.245 14.32C195.181 14.256 195.149 14.192 195.149 14.128C194.861 14.192 194.557 14.464 194.237 14.944C193.949 15.424 193.661 15.984 193.373 16.624C193.117 17.264 192.909 17.92 192.749 18.592C192.589 19.232 192.509 19.76 192.509 20.176C192.509 20.4 192.573 20.768 192.701 21.28C192.829 21.792 192.973 22.128 193.133 22.288C193.677 21.168 194.173 20.08 194.621 19.024C195.101 17.968 195.341 16.928 195.341 15.904Z" fill="white"/>
</svg>
